HIERARCHY
ROOT Hips
{
	OFFSET 0.000000 0.000000 0.000000
	CHANNELS 6 Xposition Yposition Zposition Xrotation Yrotation Zrotation
	JOINT LeftUpLeg_virtual
	{
		OFFSET 0.000000 0.000000 0.000000
		CHANNELS 3 Xrotation Yrotation Zrotation
		JOINT LeftUpLeg
		{
			OFFSET 13.026900 -6.336304 -1.092800
			CHANNELS 3 Xrotation Yrotation Zrotation
			JOINT LeftLeg
			{
				OFFSET 0.524474 -46.096886 9.782700
				CHANNELS 3 Xrotation Yrotation Zrotation
				JOINT LeftFoot
				{
					OFFSET -0.524474 -53.427422 -12.948200
					CHANNELS 3 Xrotation Yrotation Zrotation
					JOINT LeftToeBase
					{
						OFFSET 0.192200 -14.009700 16.364100
						CHANNELS 3 Xrotation Yrotation Zrotation
						JOINT LeftToe_End
						{
							OFFSET -1.784700 -0.561700 9.474800
							CHANNELS 3 Xrotation Yrotation Zrotation
							End Site
							{
								OFFSET 0 0 0
							}
						}
					}
				}
			}
		}
	}
	JOINT RightUpLeg_virtual
	{
		OFFSET 0.000000 0.000000 0.000000
		CHANNELS 3 Xrotation Yrotation Zrotation
		JOINT RightUpLeg
		{
			OFFSET -12.883000 -6.336304 -1.092800
			CHANNELS 3 Xrotation Yrotation Zrotation
			JOINT RightLeg
			{
				OFFSET -0.524587 -46.096825 9.782800
				CHANNELS 3 Xrotation Yrotation Zrotation
				JOINT RightFoot
				{
					OFFSET 0.524587 -53.427383 -12.948300
					CHANNELS 3 Xrotation Yrotation Zrotation
					JOINT RightToeBase
					{
						OFFSET -0.192200 -14.009700 16.364100
						CHANNELS 3 Xrotation Yrotation Zrotation
						JOINT RightToe_End
						{
							OFFSET 1.784700 -0.561700 9.474800
							CHANNELS 3 Xrotation Yrotation Zrotation
							End Site
							{
								OFFSET 0 0 0
							}
						}
					}
				}
			}
		}
	}
	JOINT Spine_virtual
	{
		OFFSET 0.000000 0.000000 0.000000
		CHANNELS 3 Xrotation Yrotation Zrotation
		JOINT Spine
		{
			OFFSET 0.072000 7.257294 -0.789700
			CHANNELS 3 Xrotation Yrotation Zrotation
			JOINT Spine1
			{
				OFFSET 0.000000 12.508769 -0.658067
				CHANNELS 3 Xrotation Yrotation Zrotation
				JOINT Spine1_split
				{
					OFFSET 0.000000 12.508769 -0.658067
					CHANNELS 3 Xrotation Yrotation Zrotation
					JOINT Spine2
					{
						OFFSET 0.000000 12.508769 -0.658067
						CHANNELS 3 Xrotation Yrotation Zrotation
						JOINT Neck_virtual
						{
							OFFSET 0.000000 0.000000 0.000000
							CHANNELS 3 Xrotation Yrotation Zrotation
							JOINT Neck
							{
								OFFSET 0.000000 14.033295 7.520400
								CHANNELS 3 Xrotation Yrotation Zrotation
								JOINT Head
								{
									OFFSET 0.000000 8.198502 5.703100
									CHANNELS 3 Xrotation Yrotation Zrotation
									JOINT HeadTop_End
									{
										OFFSET 0.000000 17.760803 13.332701
										CHANNELS 3 Xrotation Yrotation Zrotation
										End Site
										{
											OFFSET 0 0 0
										}
									}
								}
							}
						}
						JOINT LeftShoulder_virtual
						{
							OFFSET 0.000000 0.000000 0.000000
							CHANNELS 3 Xrotation Yrotation Zrotation
							JOINT LeftShoulder
							{
								OFFSET 6.292450 5.785301 -0.669000
								CHANNELS 3 Xrotation Yrotation Zrotation
								JOINT LeftShoulder_split
								{
									OFFSET 6.292450 5.785301 -0.669000
									CHANNELS 3 Xrotation Yrotation Zrotation
									JOINT LeftArm
									{
										OFFSET 13.907140 -6.093903 1.965100
										CHANNELS 3 Xrotation Yrotation Zrotation
										JOINT LeftForeArm
										{
											OFFSET 34.140198 0.000000 0.000000
											CHANNELS 3 Xrotation Yrotation Zrotation
											JOINT LeftHand
											{
												OFFSET 40.960209 0.000000 0.000000
												CHANNELS 3 Xrotation Yrotation Zrotation
												End Site
												{
													OFFSET 0 0 0
												}
											}
										}
									}
								}
							}
						}
						JOINT RightShoulder_virtual
						{
							OFFSET 0.000000 0.000000 0.000000
							CHANNELS 3 Xrotation Yrotation Zrotation
							JOINT RightShoulder
							{
								OFFSET -6.292450 5.785301 -0.669000
								CHANNELS 3 Xrotation Yrotation Zrotation
								JOINT RightShoulder_split
								{
									OFFSET -6.292450 5.785301 -0.669000
									CHANNELS 3 Xrotation Yrotation Zrotation
									JOINT RightArm
									{
										OFFSET -13.907140 -6.093903 1.965100
										CHANNELS 3 Xrotation Yrotation Zrotation
										JOINT RightForeArm
										{
											OFFSET -34.140198 0.000000 0.000000
											CHANNELS 3 Xrotation Yrotation Zrotation
											JOINT RightHand
											{
												OFFSET -40.960209 0.000000 0.000000
												CHANNELS 3 Xrotation Yrotation Zrotation
												End Site
												{
													OFFSET 0 0 0
												}
											}
										}
									}
								}
							}
						}
					}
				}
			}
		}
	}
}
MOTION
Frames: 4
Frame Time: 0.03333333
7.806334 101.234589 -14.369959 0.000000 0.000000 0.000000 48.714118 6.625829 -7.095489 -90.487856 4.469718 18.767038 40.452038 10.018527 -2.620465 2.415050 14.244415 -5.095559 -3.440578 0.985950 0.653075 0.000000 0.000000 0.000000 50.428202 4.642890 -5.398386 -40.723599 6.197017 -10.766504 59.535952 3.493159 -2.040277 2.405776 -1.023591 9.258591 -10.291950 0.704813 3.196522 0.000000 0.000000 0.000000 52.424120 0.241547 -2.072174 11.799915 1.138186 -2.331627 12.127839 1.574227 -0.819139 -0.028189 1.573219 1.179789 0.000000 0.000000 0.000000 26.657556 1.302432 -0.898844 -23.646969 -2.613549 4.670594 -18.611878 3.942924 -7.143480 0.000000 0.000000 0.000000 25.703183 2.068062 -0.488673 3.593458 -6.276783 7.115961 8.379136 -11.859284 -5.684952 -23.082935 -48.115421 -28.272439 4.872028 -48.013785 4.907137 0.000000 0.000000 0.000000 24.680303 1.174486 -0.348105 -3.644031 33.130966 14.560660 8.310686 8.989991 0.617693 -52.277540 24.328693 23.703774 -0.214046 32.930828 -0.045122 0.000000 0.000000 0.000000 
7.556847 103.252205 -12.690458 0.000000 0.000000 0.000000 44.922274 4.656041 -5.784805 -84.095755 5.284278 17.679248 37.706298 9.922667 -2.461255 2.554798 15.189789 -6.052796 -3.102870 1.046123 0.472445 0.000000 0.000000 0.000000 46.388797 2.829667 -4.146913 -44.919490 7.519400 -10.193774 63.796091 3.427356 -1.949026 -0.659891 -1.036626 8.204467 -6.621557 1.021813 1.198043 0.000000 0.000000 0.000000 48.342528 -1.116297 -1.737960 12.235875 1.131659 -2.403984 12.183086 1.561528 -0.620681 -0.033041 1.367016 1.189491 0.000000 0.000000 0.000000 26.561955 1.272407 -0.678646 -23.300815 -2.439568 4.648097 -17.715404 4.767769 -6.628760 0.000000 0.000000 0.000000 25.442781 2.024103 -0.294602 3.507779 -5.787418 5.782854 7.497537 -12.142038 -5.084561 -22.357140 -46.951786 -30.457740 4.482463 -47.558761 4.399362 0.000000 0.000000 0.000000 24.453436 1.142475 -0.209458 -4.017201 32.348978 15.702919 8.961029 8.630744 1.389662 -50.524596 23.659779 26.267752 -0.092145 31.833927 -0.444429 0.000000 0.000000 0.000000 
7.241483 104.923470 -11.047949 0.000000 0.000000 0.000000 41.196532 2.652496 -4.500188 -77.825723 5.785454 16.579900 35.320694 9.753821 -2.233116 2.510707 15.577285 -6.943548 -3.097847 1.059756 0.377976 0.000000 0.000000 0.000000 42.442959 0.845359 -2.813321 -48.102468 8.897004 -9.699577 65.086806 3.480565 -1.980890 -2.128563 -0.574039 7.696457 -5.678306 0.961064 0.141319 0.000000 0.000000 0.000000 44.421542 -2.495433 -1.324338 12.489558 1.055427 -2.514299 12.221096 1.587438 -0.409735 -0.076273 1.106655 1.285516 0.000000 0.000000 0.000000 26.415214 1.292158 -0.483604 -22.827298 -2.269499 4.534383 -16.859354 5.506932 -6.195778 0.000000 0.000000 0.000000 25.142362 2.034412 -0.087957 3.378212 -5.344445 4.327006 6.530763 -12.094481 -4.751040 -21.761336 -45.673209 -32.822669 3.880098 -46.206038 3.702348 0.000000 0.000000 0.000000 24.179641 1.164308 -0.070765 -4.192674 31.419782 16.446778 9.431123 8.250805 2.039353 -48.809420 22.673260 28.585373 -0.051502 30.756864 -0.869286 0.000000 0.000000 0.000000 
6.825051 106.281525 -9.409609 0.000000 0.000000 0.000000 37.691982 0.759869 -3.463852 -71.842225 6.109149 15.751166 33.273745 9.577245 -1.996210 2.314995 15.552797 -7.526045 -2.920844 1.030648 0.350590 0.000000 0.000000 0.000000 38.666094 -1.111403 -1.676199 -50.027755 10.071108 -9.382206 63.199030 3.407776 -1.952512 -2.569160 -0.026543 7.091122 -5.803125 0.672041 0.033362 0.000000 0.000000 0.000000 40.780495 -3.871355 -0.925156 12.554557 0.941044 -2.624580 12.229478 1.649577 -0.174933 -0.114982 0.922543 1.400156 0.000000 0.000000 0.000000 26.210470 1.350090 -0.292997 -22.254186 -2.122195 4.367348 -16.012964 6.140225 -5.869329 0.000000 0.000000 0.000000 24.794087 2.082572 0.139979 3.230059 -4.995088 2.891126 5.782273 -11.810236 -4.627192 -21.205349 -44.392483 -35.218624 3.257134 -44.304346 2.977739 0.000000 0.000000 0.000000 23.857644 1.231271 0.090737 -4.174852 30.379049 16.813433 9.592667 7.790610 2.671087 -46.977003 21.383519 30.519027 -0.100311 29.878051 -1.291554 0.000000 0.000000 0.000000 
